<svg xmlns="http://www.w3.org/2000/svg" version="1.1" xmlns:xlink="http://www.w3.org/1999/xlink" xmlns:svgjs="http://svgjs.dev/svgjs" width="921.26" height="921.26"><svg xmlns="http://www.w3.org/2000/svg" xmlns:xlink="http://www.w3.org/1999/xlink" x="0px" y="0px" viewBox="0 0 921.26 921.26" style="enable-background:new 0 0 921.26 921.26;" xml:space="preserve"><style type="text/css">	.st0{fill:#D9EBF9;}	.st1{fill:#0034A9;}	.st2{fill:#0058DF;}</style><g id="SvgjsG1009"></g><g id="SvgjsG1008">	<polygon class="st0" points="515.28,272.73 515.28,346.76 501.37,370.86 478.9,409.77 456.45,448.67 433.98,409.77 411.53,370.87   397.61,346.76 397.61,272.73 456.44,369.11  "></polygon>	<polygon class="st0" points="515.28,582.71 515.28,656.74 460.99,560.37 397.61,656.74 397.61,582.71 411.53,558.6 433.98,519.7   456.45,480.8 478.9,519.7 501.37,558.61  "></polygon>	<polygon class="st0" points="652.14,419.68 588.02,456.7 470.36,456.7 492.82,417.8 515.28,378.9 529.19,354.8 593.31,317.78   536.99,412.98  "></polygon>	<polygon class="st0" points="442.53,472.77 420.07,511.67 397.61,550.57 383.7,574.67 319.58,611.69 373.63,512.55 260.74,509.79   324.86,472.77  "></polygon>	<polygon class="st0" points="539.26,512.55 593.31,611.69 529.19,574.67 515.28,550.57 492.82,511.67 470.36,472.77 588.02,472.77   652.14,509.79  "></polygon>	<polygon class="st0" points="442.53,456.7 324.86,456.7 260.74,419.68 371.35,420.86 319.58,317.78 383.7,354.8 397.61,378.9   420.07,417.8  "></polygon></g><g id="SvgjsG1007">	<path class="st1" d="M657.28,255.71l-60.65,38.2c-43.42-32.37-97.26-51.53-155.58-51.53c-143.9,0-260.55,116.65-260.55,260.55  c0,78.46,34.68,148.82,89.55,196.58c0.7,0.61,0.87,1.62,0.41,2.41v0c-0.61,1.05-2.03,1.29-2.95,0.49  C205.53,648.08,166.4,568.32,166.4,479.43c0-163.7,132.71-296.42,296.42-296.42C537.22,183.01,605.23,210.43,657.28,255.71z"></path></g><g id="SvgjsG1006">	<path class="st2" d="M568.74,827.14c0.45,1.29-0.28,2.7-1.61,3.05c-31.06,8.26-63.68,12.65-97.33,12.65  c-208.79,0-378.04-169.25-378.04-378.04c0-184.09,131.59-337.45,305.85-371.14v71.45c-145.57,39.33-252.52,172.69-251.66,330.9  c1.02,187.73,153.05,338.9,340.78,338.9c27.3,0,53.83-3.21,79.27-9.27C567.16,825.36,568.34,826.01,568.74,827.14L568.74,827.14z"></path></g><g id="SvgjsG1005">	<path class="st2" d="M831.46,723.11C748.79,839.5,612.89,915.43,459.26,915.43C207.7,915.43,1.13,707.23,3.01,455.68  c1.04-139.02,64.26-263.26,163.23-346.26l32.74,70.62C124.21,255.35,78.04,359.06,78.04,473.55  c0,230.1,186.54,416.64,416.65,416.64c137.15,0,258.83-66.27,334.75-168.55c0.37-0.5,1.05-0.65,1.59-0.35l0,0  C831.69,721.64,831.89,722.5,831.46,723.11z"></path></g></svg><style>@media (prefers-color-scheme: light) { :root { filter: none; } }
@media (prefers-color-scheme: dark) { :root { filter: none; } }
</style></svg>